<svg width="352" height="72" viewBox="0 0 352 72" fill="none" xmlns="http://www.w3.org/2000/svg">
<g clip-path="url(#clip0_6528_186)">
<g clip-path="url(#clip1_6528_186)">
<path d="M33.9961 65.9922C19.0941 65.9922 7 52.5387 7 35.9961C7 19.4535 19.1098 6 33.9961 6C48.8823 6 61 19.4535 61 35.9961C61 52.5387 48.8823 65.9922 33.9961 65.9922ZM33.9961 8.68446C20.6 8.68446 9.68235 20.9319 9.68235 35.9961C9.68235 51.0603 20.5765 63.3077 33.9961 63.3077C47.4157 63.3077 58.3098 51.0525 58.3098 35.9961C58.3098 20.9397 47.3843 8.68446 33.9961 8.68446Z" fill="white"/>
<path d="M35.2125 65.3234H33.8556C33.8412 58.7348 31.2009 52.4193 26.5108 47.7546C21.8207 43.0899 15.4614 40.4547 8.82031 40.4239V37.0625C24.0909 37.1014 36.538 50.1425 36.5615 65.2923L35.2125 65.3234Z" fill="white"/>
<path d="M35 64.1442C35 49.7959 45.8549 37.3306 60.1922 36L60.4431 39.3459C54.2154 39.9009 48.4239 42.7529 44.2127 47.3385C40.0015 51.9241 37.6769 57.9097 37.698 64.1131L35 64.1442Z" fill="white"/>
<path d="M35.1568 50.2514H33.8078C33.7848 43.9644 31.3758 37.9167 27.0605 33.3125C22.7452 28.7084 16.8402 25.8856 10.5215 25.4064L10.7176 22.0527C25.1568 23.0798 36.4901 35.8253 36.5137 50.2203L35.1568 50.2514Z" fill="white"/>
<path d="M36.5125 61.2998H33.8066V50.2506C33.8066 36.6104 43.6498 24.4952 57.1635 22.3398L57.587 25.6624C51.6984 26.5872 46.3373 29.5709 42.4723 34.0745C38.6074 38.5782 36.4935 44.3047 36.5125 50.2195V61.2998Z" fill="white"/>
</g>
<path d="M99.3554 20.016C99.2274 21.328 99.1314 22.608 99.0674 23.856C99.0354 25.072 99.0194 26 99.0194 26.64C99.0194 27.248 99.0354 27.84 99.0674 28.416C99.0994 28.96 99.1314 29.424 99.1634 29.808H98.0594C97.8034 27.6 97.3874 25.872 96.8114 24.624C96.2354 23.344 95.4514 22.448 94.4594 21.936C93.4994 21.392 92.2354 21.12 90.6674 21.12H88.0274C87.0674 21.12 86.3314 21.2 85.8194 21.36C85.3074 21.52 84.9554 21.856 84.7634 22.368C84.6034 22.88 84.5234 23.664 84.5234 24.72V49.296C84.5234 50.32 84.6034 51.104 84.7634 51.648C84.9554 52.16 85.3074 52.496 85.8194 52.656C86.3314 52.816 87.0674 52.896 88.0274 52.896H90.7634C92.3954 52.896 93.7554 52.592 94.8434 51.984C95.9634 51.376 96.8594 50.384 97.5314 49.008C98.2034 47.6 98.6994 45.68 99.0194 43.248H100.123C100.027 44.24 99.9794 45.52 99.9794 47.088C99.9794 47.76 99.9954 48.736 100.027 50.016C100.091 51.296 100.187 52.624 100.315 54C98.6834 53.936 96.8434 53.904 94.7954 53.904C92.7474 53.872 90.9234 53.856 89.3234 53.856C88.5874 53.856 87.6114 53.856 86.3954 53.856C85.2114 53.856 83.9154 53.872 82.5074 53.904C81.1314 53.904 79.7234 53.92 78.2834 53.952C76.8754 53.952 75.5314 53.968 74.2514 54V53.04C75.3074 52.976 76.0914 52.848 76.6034 52.656C77.1474 52.464 77.4994 52.08 77.6594 51.504C77.8514 50.928 77.9474 50.064 77.9474 48.912V25.104C77.9474 23.92 77.8514 23.056 77.6594 22.512C77.4994 21.936 77.1474 21.552 76.6034 21.36C76.0914 21.136 75.3074 21.008 74.2514 20.976V20.016C75.5314 20.048 76.8754 20.08 78.2834 20.112C79.7234 20.112 81.1314 20.128 82.5074 20.16C83.9154 20.16 85.2114 20.16 86.3954 20.16C87.6114 20.16 88.5874 20.16 89.3234 20.16C90.7954 20.16 92.4594 20.16 94.3154 20.16C96.2034 20.128 97.8834 20.08 99.3554 20.016ZM91.6274 36.432C91.6274 36.432 91.6274 36.592 91.6274 36.912C91.6274 37.232 91.6274 37.392 91.6274 37.392H83.0834C83.0834 37.392 83.0834 37.232 83.0834 36.912C83.0834 36.592 83.0834 36.432 83.0834 36.432H91.6274ZM93.0194 30.096C92.8914 31.92 92.8274 33.312 92.8274 34.272C92.8594 35.232 92.8754 36.112 92.8754 36.912C92.8754 37.712 92.8914 38.592 92.9234 39.552C92.9554 40.512 93.0354 41.904 93.1634 43.728H92.0594C91.8994 42.64 91.6434 41.616 91.2914 40.656C90.9714 39.664 90.4434 38.88 89.7074 38.304C89.0034 37.696 87.9794 37.392 86.6354 37.392V36.432C87.6274 36.432 88.4274 36.224 89.0354 35.808C89.6754 35.392 90.1874 34.864 90.5714 34.224C90.9554 33.552 91.2434 32.864 91.4354 32.16C91.6594 31.424 91.8194 30.736 91.9154 30.096H93.0194ZM112.795 16.416V49.536C112.795 50.88 113.035 51.792 113.515 52.272C114.027 52.752 114.875 52.992 116.059 52.992V54C115.483 53.968 114.603 53.936 113.419 53.904C112.267 53.84 111.083 53.808 109.867 53.808C108.683 53.808 107.467 53.84 106.219 53.904C105.003 53.936 104.091 53.968 103.483 54V52.992C104.667 52.992 105.499 52.752 105.979 52.272C106.491 51.792 106.747 50.88 106.747 49.536V22.176C106.747 20.736 106.523 19.68 106.075 19.008C105.627 18.304 104.763 17.952 103.483 17.952V16.944C104.507 17.04 105.499 17.088 106.459 17.088C107.675 17.088 108.811 17.04 109.867 16.944C110.923 16.816 111.899 16.64 112.795 16.416ZM129.93 28.512C132.746 28.512 134.954 29.36 136.554 31.056C138.154 32.752 138.954 35.456 138.954 39.168H122.778L122.73 38.256H133.386C133.45 36.688 133.354 35.248 133.098 33.936C132.842 32.592 132.426 31.52 131.85 30.72C131.306 29.92 130.586 29.52 129.69 29.52C128.474 29.52 127.418 30.24 126.522 31.68C125.626 33.088 125.066 35.408 124.842 38.64L125.034 38.928C124.97 39.344 124.922 39.792 124.89 40.272C124.89 40.752 124.89 41.232 124.89 41.712C124.89 43.92 125.21 45.744 125.85 47.184C126.49 48.624 127.322 49.68 128.346 50.352C129.37 51.024 130.426 51.36 131.514 51.36C132.25 51.36 133.002 51.248 133.77 51.024C134.538 50.8 135.29 50.384 136.026 49.776C136.762 49.168 137.434 48.304 138.042 47.184L138.954 47.568C138.602 48.688 138.01 49.808 137.178 50.928C136.378 52.016 135.338 52.912 134.058 53.616C132.778 54.32 131.274 54.672 129.546 54.672C127.37 54.672 125.45 54.192 123.786 53.232C122.122 52.272 120.826 50.848 119.898 48.96C118.97 47.04 118.506 44.704 118.506 41.952C118.506 39.04 118.986 36.592 119.946 34.608C120.938 32.624 122.298 31.12 124.026 30.096C125.754 29.04 127.722 28.512 129.93 28.512ZM164.445 29.184V30.192C163.837 30.32 163.261 30.656 162.717 31.2C162.205 31.744 161.709 32.704 161.229 34.08L153.885 54.144C153.501 54.112 153.117 54.096 152.733 54.096C152.349 54.096 151.949 54.112 151.533 54.144L142.893 32.88C142.413 31.664 141.917 30.912 141.405 30.624C140.893 30.336 140.461 30.192 140.109 30.192V29.184C141.005 29.248 141.933 29.312 142.893 29.376C143.853 29.408 144.909 29.424 146.061 29.424C147.053 29.424 148.093 29.408 149.181 29.376C150.301 29.312 151.341 29.248 152.301 29.184V30.192C151.597 30.192 150.957 30.24 150.381 30.336C149.837 30.432 149.469 30.688 149.277 31.104C149.085 31.488 149.165 32.176 149.517 33.168L155.277 48.096L154.845 48.624L159.213 36.768C159.757 35.264 159.981 34.048 159.885 33.12C159.789 32.192 159.437 31.488 158.829 31.008C158.253 30.528 157.421 30.256 156.333 30.192V29.184C156.877 29.216 157.389 29.248 157.869 29.28C158.381 29.312 158.877 29.344 159.357 29.376C159.869 29.376 160.349 29.376 160.797 29.376C161.469 29.376 162.125 29.36 162.765 29.328C163.437 29.296 163.997 29.248 164.445 29.184ZM171.692 16.944C172.844 16.944 173.788 17.264 174.524 17.904C175.26 18.544 175.628 19.392 175.628 20.448C175.628 21.504 175.26 22.352 174.524 22.992C173.788 23.632 172.844 23.952 171.692 23.952C170.54 23.952 169.596 23.632 168.86 22.992C168.124 22.352 167.756 21.504 167.756 20.448C167.756 19.392 168.124 18.544 168.86 17.904C169.596 17.264 170.54 16.944 171.692 16.944ZM175.052 28.656V49.536C175.052 50.88 175.292 51.792 175.772 52.272C176.284 52.752 177.132 52.992 178.316 52.992V54C177.74 53.968 176.86 53.936 175.676 53.904C174.492 53.84 173.292 53.808 172.076 53.808C170.892 53.808 169.692 53.84 168.476 53.904C167.26 53.936 166.348 53.968 165.74 54V52.992C166.924 52.992 167.756 52.752 168.236 52.272C168.748 51.792 169.004 50.88 169.004 49.536V34.464C169.004 32.992 168.764 31.92 168.284 31.248C167.836 30.544 166.988 30.192 165.74 30.192V29.184C166.764 29.28 167.756 29.328 168.716 29.328C169.9 29.328 171.02 29.28 172.076 29.184C173.164 29.056 174.156 28.88 175.052 28.656ZM187.178 54.336C185.802 54.336 184.634 54.08 183.674 53.568C182.714 53.024 181.994 52.304 181.514 51.408C181.034 50.48 180.794 49.456 180.794 48.336C180.794 46.96 181.114 45.84 181.754 44.976C182.394 44.08 183.21 43.376 184.202 42.864C185.226 42.32 186.298 41.872 187.418 41.52C188.538 41.136 189.594 40.784 190.586 40.464C191.578 40.112 192.394 39.712 193.034 39.264C193.674 38.816 193.994 38.224 193.994 37.488V33.984C193.994 32.96 193.834 32.128 193.514 31.488C193.226 30.816 192.778 30.32 192.17 30C191.594 29.648 190.858 29.472 189.962 29.472C189.29 29.472 188.586 29.568 187.85 29.76C187.114 29.952 186.506 30.32 186.026 30.864C186.858 31.088 187.498 31.504 187.946 32.112C188.426 32.72 188.666 33.456 188.666 34.32C188.666 35.312 188.33 36.096 187.658 36.672C187.018 37.216 186.202 37.488 185.21 37.488C184.154 37.488 183.354 37.152 182.81 36.48C182.266 35.808 181.994 35.024 181.994 34.128C181.994 33.232 182.218 32.496 182.666 31.92C183.114 31.312 183.738 30.768 184.538 30.288C185.338 29.744 186.362 29.312 187.61 28.992C188.858 28.672 190.218 28.512 191.69 28.512C193.098 28.512 194.346 28.672 195.434 28.992C196.522 29.28 197.45 29.808 198.218 30.576C198.986 31.312 199.482 32.224 199.706 33.312C199.93 34.4 200.042 35.728 200.042 37.296V50.448C200.042 51.248 200.138 51.824 200.33 52.176C200.522 52.496 200.826 52.656 201.242 52.656C201.562 52.656 201.866 52.576 202.154 52.416C202.442 52.256 202.762 52.032 203.114 51.744L203.642 52.56C202.938 53.104 202.202 53.536 201.434 53.856C200.666 54.176 199.738 54.336 198.65 54.336C197.53 54.336 196.634 54.176 195.962 53.856C195.322 53.536 194.842 53.072 194.522 52.464C194.234 51.856 194.074 51.136 194.042 50.304C193.274 51.584 192.33 52.576 191.21 53.28C190.09 53.984 188.746 54.336 187.178 54.336ZM190.058 51.648C190.826 51.648 191.53 51.44 192.17 51.024C192.842 50.608 193.45 49.984 193.994 49.152V39.456C193.674 39.936 193.21 40.368 192.602 40.752C192.026 41.136 191.402 41.52 190.73 41.904C190.058 42.288 189.418 42.736 188.81 43.248C188.234 43.728 187.738 44.336 187.322 45.072C186.938 45.776 186.746 46.688 186.746 47.808C186.746 49.056 187.05 50.016 187.658 50.688C188.266 51.328 189.066 51.648 190.058 51.648ZM233.554 19.344C235.666 19.344 237.394 19.664 238.738 20.304C240.114 20.912 241.33 21.632 242.386 22.464C243.026 22.944 243.506 23.008 243.826 22.656C244.178 22.272 244.418 21.392 244.546 20.016H245.65C245.586 21.232 245.538 22.72 245.506 24.48C245.474 26.24 245.458 28.56 245.458 31.44H244.354C244.162 30 243.954 28.8 243.73 27.84C243.506 26.848 243.186 26 242.77 25.296C242.386 24.592 241.842 23.92 241.138 23.28C240.274 22.32 239.234 21.616 238.018 21.168C236.834 20.688 235.586 20.448 234.274 20.448C232.61 20.448 231.154 20.896 229.906 21.792C228.69 22.656 227.666 23.856 226.834 25.392C226.034 26.896 225.426 28.656 225.01 30.672C224.626 32.688 224.434 34.832 224.434 37.104C224.434 39.44 224.642 41.616 225.058 43.632C225.506 45.616 226.146 47.36 226.978 48.864C227.842 50.336 228.898 51.488 230.146 52.32C231.426 53.152 232.898 53.568 234.562 53.568C235.746 53.568 236.962 53.344 238.21 52.896C239.458 52.448 240.482 51.76 241.282 50.832C242.338 49.872 243.058 48.736 243.442 47.424C243.826 46.08 244.13 44.304 244.354 42.096H245.458C245.458 45.104 245.474 47.536 245.506 49.392C245.538 51.216 245.586 52.752 245.65 54H244.546C244.418 52.624 244.194 51.76 243.874 51.408C243.586 51.056 243.09 51.104 242.386 51.552C241.202 52.384 239.938 53.12 238.594 53.76C237.282 54.368 235.586 54.672 233.506 54.672C230.242 54.672 227.378 53.984 224.914 52.608C222.45 51.232 220.53 49.248 219.154 46.656C217.81 44.064 217.138 40.944 217.138 37.296C217.138 33.712 217.842 30.576 219.25 27.888C220.658 25.2 222.594 23.104 225.058 21.6C227.522 20.096 230.354 19.344 233.554 19.344ZM258.811 16.416V49.536C258.811 50.88 259.051 51.792 259.531 52.272C260.043 52.752 260.891 52.992 262.075 52.992V54C261.499 53.968 260.619 53.936 259.435 53.904C258.283 53.84 257.099 53.808 255.883 53.808C254.699 53.808 253.483 53.84 252.235 53.904C251.019 53.936 250.107 53.968 249.499 54V52.992C250.683 52.992 251.515 52.752 251.995 52.272C252.507 51.792 252.763 50.88 252.763 49.536V22.176C252.763 20.736 252.539 19.68 252.091 19.008C251.643 18.304 250.779 17.952 249.499 17.952V16.944C250.523 17.04 251.515 17.088 252.475 17.088C253.691 17.088 254.827 17.04 255.883 16.944C256.939 16.816 257.915 16.64 258.811 16.416ZM270.27 16.944C271.422 16.944 272.366 17.264 273.102 17.904C273.838 18.544 274.206 19.392 274.206 20.448C274.206 21.504 273.838 22.352 273.102 22.992C272.366 23.632 271.422 23.952 270.27 23.952C269.118 23.952 268.174 23.632 267.438 22.992C266.702 22.352 266.334 21.504 266.334 20.448C266.334 19.392 266.702 18.544 267.438 17.904C268.174 17.264 269.118 16.944 270.27 16.944ZM273.63 28.656V49.536C273.63 50.88 273.87 51.792 274.35 52.272C274.862 52.752 275.71 52.992 276.894 52.992V54C276.318 53.968 275.438 53.936 274.254 53.904C273.07 53.84 271.87 53.808 270.654 53.808C269.47 53.808 268.27 53.84 267.054 53.904C265.838 53.936 264.926 53.968 264.318 54V52.992C265.502 52.992 266.334 52.752 266.814 52.272C267.326 51.792 267.582 50.88 267.582 49.536V34.464C267.582 32.992 267.342 31.92 266.862 31.248C266.414 30.544 265.566 30.192 264.318 30.192V29.184C265.342 29.28 266.334 29.328 267.294 29.328C268.478 29.328 269.598 29.28 270.654 29.184C271.742 29.056 272.734 28.88 273.63 28.656ZM296.316 28.512C297.66 28.512 298.732 28.688 299.532 29.04C300.364 29.392 301.036 29.84 301.548 30.384C302.124 30.992 302.524 31.776 302.748 32.736C303.004 33.696 303.132 34.992 303.132 36.624V49.536C303.132 50.88 303.372 51.792 303.852 52.272C304.364 52.752 305.212 52.992 306.396 52.992V54C305.82 53.968 304.924 53.936 303.708 53.904C302.524 53.84 301.372 53.808 300.252 53.808C299.068 53.808 297.916 53.84 296.796 53.904C295.676 53.936 294.844 53.968 294.3 54V52.992C295.324 52.992 296.044 52.752 296.46 52.272C296.876 51.792 297.084 50.88 297.084 49.536V34.992C297.084 34.128 297.004 33.36 296.844 32.688C296.684 31.984 296.364 31.44 295.884 31.056C295.404 30.64 294.716 30.432 293.82 30.432C292.764 30.432 291.82 30.72 290.988 31.296C290.188 31.872 289.548 32.672 289.068 33.696C288.62 34.688 288.396 35.808 288.396 37.056V49.536C288.396 50.88 288.604 51.792 289.02 52.272C289.436 52.752 290.156 52.992 291.18 52.992V54C290.636 53.968 289.82 53.936 288.732 53.904C287.644 53.84 286.54 53.808 285.42 53.808C284.236 53.808 283.036 53.84 281.82 53.904C280.604 53.936 279.692 53.968 279.084 54V52.992C280.268 52.992 281.1 52.752 281.58 52.272C282.092 51.792 282.348 50.88 282.348 49.536V34.416C282.348 32.976 282.108 31.92 281.628 31.248C281.18 30.544 280.332 30.192 279.084 30.192V29.184C280.108 29.28 281.1 29.328 282.06 29.328C283.244 29.328 284.364 29.28 285.42 29.184C286.508 29.056 287.5 28.88 288.396 28.656V33.456C289.196 31.632 290.3 30.352 291.708 29.616C293.116 28.88 294.652 28.512 296.316 28.512ZM314.239 16.944C315.391 16.944 316.335 17.264 317.071 17.904C317.807 18.544 318.175 19.392 318.175 20.448C318.175 21.504 317.807 22.352 317.071 22.992C316.335 23.632 315.391 23.952 314.239 23.952C313.087 23.952 312.143 23.632 311.407 22.992C310.671 22.352 310.303 21.504 310.303 20.448C310.303 19.392 310.671 18.544 311.407 17.904C312.143 17.264 313.087 16.944 314.239 16.944ZM317.599 28.656V49.536C317.599 50.88 317.839 51.792 318.319 52.272C318.831 52.752 319.679 52.992 320.863 52.992V54C320.287 53.968 319.407 53.936 318.223 53.904C317.039 53.84 315.839 53.808 314.623 53.808C313.439 53.808 312.239 53.84 311.023 53.904C309.807 53.936 308.895 53.968 308.287 54V52.992C309.471 52.992 310.303 52.752 310.783 52.272C311.295 51.792 311.551 50.88 311.551 49.536V34.464C311.551 32.992 311.311 31.92 310.831 31.248C310.383 30.544 309.535 30.192 308.287 30.192V29.184C309.311 29.28 310.303 29.328 311.263 29.328C312.447 29.328 313.567 29.28 314.623 29.184C315.711 29.056 316.703 28.88 317.599 28.656ZM335.341 28.512C336.525 28.512 337.613 28.656 338.605 28.944C339.629 29.2 340.509 29.568 341.245 30.048C342.013 30.528 342.621 31.136 343.069 31.872C343.517 32.576 343.741 33.36 343.741 34.224C343.741 35.28 343.421 36.128 342.781 36.768C342.141 37.408 341.341 37.728 340.381 37.728C339.389 37.728 338.573 37.44 337.933 36.864C337.325 36.288 337.021 35.52 337.021 34.56C337.021 33.632 337.293 32.864 337.837 32.256C338.381 31.648 339.037 31.248 339.805 31.056C339.517 30.64 339.069 30.304 338.461 30.048C337.853 29.76 337.181 29.616 336.445 29.616C335.485 29.616 334.621 29.872 333.853 30.384C333.085 30.864 332.413 31.6 331.837 32.592C331.293 33.552 330.861 34.752 330.541 36.192C330.253 37.6 330.109 39.232 330.109 41.088C330.109 43.68 330.413 45.728 331.021 47.232C331.661 48.736 332.477 49.808 333.469 50.448C334.461 51.056 335.517 51.36 336.637 51.36C337.309 51.36 338.029 51.232 338.797 50.976C339.565 50.72 340.317 50.288 341.053 49.68C341.821 49.072 342.509 48.208 343.117 47.088L344.029 47.424C343.677 48.544 343.101 49.664 342.301 50.784C341.533 51.904 340.525 52.832 339.277 53.568C338.029 54.304 336.509 54.672 334.717 54.672C332.669 54.672 330.813 54.208 329.149 53.28C327.485 52.32 326.157 50.88 325.165 48.96C324.205 47.04 323.725 44.656 323.725 41.808C323.725 38.992 324.221 36.608 325.213 34.656C326.205 32.672 327.581 31.152 329.341 30.096C331.133 29.04 333.133 28.512 335.341 28.512Z" fill="white"/>
</g>
<defs>
<clipPath id="clip0_6528_186">
<rect width="352" height="72" fill="white"/>
</clipPath>
<clipPath id="clip1_6528_186">
<rect width="54" height="60" fill="white" transform="translate(7 6)"/>
</clipPath>
</defs>
</svg>
